<svg width="15" height="15" viewBox="0 0 15 15" fill="none" xmlns="http://www.w3.org/2000/svg">
<path d="M12.0898 2.83594H2.75651C2.11484 2.83594 1.59568 3.36094 1.59568 4.0026L1.58984 11.0026C1.58984 11.6443 2.11484 12.1693 2.75651 12.1693H12.0898C12.7315 12.1693 13.2565 11.6443 13.2565 11.0026V4.0026C13.2565 3.36094 12.7315 2.83594 12.0898 2.83594ZM11.8565 5.3151L7.73234 7.89344C7.54568 8.0101 7.30068 8.0101 7.11401 7.89344L2.98984 5.3151C2.93135 5.28227 2.88013 5.23791 2.83928 5.1847C2.79843 5.1315 2.7688 5.07056 2.75218 5.00557C2.73556 4.94058 2.7323 4.8729 2.7426 4.80662C2.7529 4.74033 2.77654 4.67683 2.81209 4.61995C2.84764 4.56306 2.89437 4.51399 2.94943 4.47568C3.0045 4.43738 3.06677 4.41065 3.13247 4.39711C3.19816 4.38357 3.26593 4.3835 3.33165 4.39691C3.39738 4.41031 3.4597 4.43692 3.51484 4.4751L7.42318 6.91927L11.3315 4.4751C11.3867 4.43692 11.449 4.41031 11.5147 4.39691C11.5804 4.3835 11.6482 4.38357 11.7139 4.39711C11.7796 4.41065 11.8419 4.43738 11.8969 4.47568C11.952 4.51399 11.9987 4.56306 12.0343 4.61995C12.0698 4.67683 12.0935 4.74033 12.1038 4.80662C12.1141 4.8729 12.1108 4.94058 12.0942 5.00557C12.0776 5.07056 12.0479 5.1315 12.0071 5.1847C11.9662 5.23791 11.915 5.28227 11.8565 5.3151Z" fill="#FFBB00"/>
</svg>
