<svg width="15" height="14" viewBox="0 0 15 14" fill="none" xmlns="http://www.w3.org/2000/svg">
<path d="M13.4075 9.57458C13.31 10.3156 12.9461 10.9958 12.3837 11.4881C11.8213 11.9805 11.099 12.2512 10.3516 12.2499C6.00938 12.2499 2.47657 8.71708 2.47657 4.37489C2.47523 3.62747 2.74601 2.90512 3.23833 2.34275C3.73065 1.78039 4.41085 1.41646 5.15188 1.31895C5.33927 1.29607 5.52903 1.33441 5.69284 1.42824C5.85665 1.52207 5.98572 1.66636 6.06079 1.83958L7.21579 4.41809V4.42465C7.27326 4.55725 7.29699 4.70201 7.28487 4.84601C7.27275 4.99001 7.22516 5.12877 7.14633 5.24989C7.13649 5.26466 7.1261 5.27833 7.11516 5.292L5.97657 6.64169C6.38618 7.47403 7.2568 8.337 8.10008 8.7477L9.43118 7.61512C9.44424 7.60412 9.45793 7.5939 9.47219 7.5845C9.59321 7.50378 9.73245 7.45451 9.8773 7.44114C10.0222 7.42777 10.1681 7.45073 10.3018 7.50794L10.3089 7.51122L12.8852 8.66567C13.0588 8.74047 13.2034 8.86942 13.2975 9.03326C13.3917 9.19709 13.4303 9.387 13.4075 9.57458Z" fill="#FFBB00"/>
</svg>
