<svg width="14" height="14" viewBox="0 0 14 14" fill="none" xmlns="http://www.w3.org/2000/svg">
<path d="M6.70052 1.16406C4.42552 1.16406 2.36719 3.0424 2.36719 5.9474C2.36719 7.8024 3.69427 9.98406 6.34302 12.4982C6.54885 12.6907 6.8576 12.6907 7.06344 12.4982C9.70677 9.98406 11.0339 7.8024 11.0339 5.9474C11.0339 3.0424 8.97552 1.16406 6.70052 1.16406ZM6.70052 6.9974C6.10469 6.9974 5.61719 6.4724 5.61719 5.83073C5.61719 5.18906 6.10469 4.66406 6.70052 4.66406C7.29635 4.66406 7.78385 5.18906 7.78385 5.83073C7.78385 6.4724 7.29635 6.9974 6.70052 6.9974Z" fill="#FFBB00"/>
</svg>
