<svg width="25" height="24" viewBox="0 0 25 24" fill="none" xmlns="http://www.w3.org/2000/svg">
<circle cx="12.3867" cy="11.9961" r="10.918" stroke="#5F5F5F" stroke-width="1.5"/>
<g clip-path="url(#clip0_145_78)">
<path d="M17.3287 6.06758C17.3287 6.06758 18.6694 5.54477 18.5572 6.81435C18.5203 7.33715 18.1852 9.16715 17.9243 11.1462L17.0305 17.0093C17.0305 17.0093 16.956 17.8682 16.2855 18.0176C15.6153 18.1667 14.6097 17.4948 14.4234 17.3454C14.2743 17.2332 11.6303 15.5527 10.6992 14.7314C10.4383 14.507 10.1402 14.0591 10.7365 13.5363L14.647 9.80177C15.0939 9.35316 15.5408 8.30754 13.6787 9.57746L8.46442 13.125C8.46442 13.125 7.86845 13.4987 6.7514 13.1626L4.33027 12.4155C4.33027 12.4155 3.43649 11.8554 4.9635 11.2953C8.68803 9.54019 13.2691 7.74781 17.3283 6.06723" fill="#5F5F5F"/>
</g>
<defs>
<clipPath id="clip0_145_78">
<rect width="15" height="15" fill="white" transform="translate(3.5625 4.5)"/>
</clipPath>
</defs>
</svg>
