<svg width="29" height="28" viewBox="0 0 29 28" fill="none" xmlns="http://www.w3.org/2000/svg">
<g clip-path="url(#clip0_145_72)">
<path d="M22.9505 5.23101C21.8809 4.15059 20.6069 3.29395 19.2028 2.71107C17.7986 2.12818 16.2925 1.83071 14.7722 1.83601C8.40219 1.83601 3.21052 7.02767 3.21052 13.3977C3.21052 15.4393 3.74719 17.4227 4.75052 19.1727L3.11719 25.1693L9.24219 23.5593C10.9339 24.481 12.8355 24.971 14.7722 24.971C21.1422 24.971 26.3339 19.7793 26.3339 13.4093C26.3339 10.3177 25.1322 7.41267 22.9505 5.23101ZM14.7722 23.011C13.0455 23.011 11.3539 22.5443 9.87219 21.6693L9.52219 21.4593L5.88219 22.416L6.85052 18.8693L6.61719 18.5077C5.65789 16.9758 5.14852 15.2051 5.14719 13.3977C5.14719 8.10101 9.46385 3.78434 14.7605 3.78434C17.3272 3.78434 19.7422 4.78767 21.5505 6.60767C22.4459 7.49896 23.1555 8.55911 23.6381 9.72667C24.1208 10.8942 24.3669 12.146 24.3622 13.4093C24.3855 18.706 20.0689 23.011 14.7722 23.011ZM20.0455 15.8243C19.7539 15.6843 18.3305 14.9843 18.0739 14.8793C17.8055 14.786 17.6189 14.7393 17.4205 15.0193C17.2222 15.311 16.6739 15.9643 16.5105 16.151C16.3472 16.3493 16.1722 16.3727 15.8805 16.221C15.5889 16.081 14.6555 15.766 13.5589 14.786C12.6955 14.016 12.1239 13.071 11.9489 12.7793C11.7855 12.4877 11.9255 12.336 12.0772 12.1843C12.2055 12.056 12.3689 11.846 12.5089 11.6827C12.6489 11.5193 12.7072 11.391 12.8005 11.2043C12.8939 11.006 12.8472 10.8427 12.7772 10.7027C12.7072 10.5627 12.1239 9.13934 11.8905 8.55601C11.6572 7.99601 11.4122 8.06601 11.2372 8.05434H10.6772C10.4789 8.05434 10.1755 8.12434 9.90719 8.41601C9.65052 8.70767 8.90385 9.40767 8.90385 10.831C8.90385 12.2543 9.94219 13.631 10.0822 13.8177C10.2222 14.016 12.1239 16.9327 15.0172 18.181C15.7055 18.4843 16.2422 18.6593 16.6622 18.7877C17.3505 19.0093 17.9805 18.9743 18.4822 18.9043C19.0422 18.8227 20.1972 18.2043 20.4305 17.5277C20.6755 16.851 20.6755 16.2793 20.5939 16.151C20.5122 16.0227 20.3372 15.9643 20.0455 15.8243Z" fill="#5F5F5F"/>
</g>
<defs>
<clipPath id="clip0_145_72">
<rect width="28" height="28" fill="white" transform="translate(0.71875)"/>
</clipPath>
</defs>
</svg>
